<svg width="128" height="128" viewBox="0 0 128 128" fill="none" xmlns="http://www.w3.org/2000/svg">
<g opacity="0.6">
<path d="M50.8266 25.4133C51.68 23.0933 54.9866 23.0933 55.84 25.4133L61.5466 40.88C61.8133 41.6 62.4 42.1867 63.12 42.4533L78.5866 48.16C80.9066 49.0133 80.9066 52.32 78.5866 53.1733L63.12 58.88C62.4 59.1467 61.8133 59.7333 61.5466 60.4533L55.84 75.92C54.9866 78.24 51.68 78.24 50.8266 75.92L45.12 60.4533C44.8533 59.7333 44.2666 59.1467 43.5466 58.88L28.08 53.1733C25.76 52.32 25.76 49.0133 28.08 48.16L43.5466 42.4533C44.2666 42.1867 44.8533 41.6 45.12 40.88L50.8266 25.4133Z" fill="white"/>
<path d="M81.4933 70.7467C82.3466 68.4267 85.6533 68.4267 86.5066 70.7467L89.7066 79.3867C89.9733 80.1333 90.5333 80.6933 91.28 80.96L99.92 84.16C102.24 85.0133 102.24 88.32 99.92 89.1733L91.28 92.3733C90.5333 92.64 89.9733 93.2 89.7066 93.9467L86.5066 102.587C85.6533 104.907 82.3466 104.907 81.4933 102.587L78.2933 93.9467C78.0266 93.2 77.4666 92.64 76.72 92.3733L68.08 89.1733C65.76 88.32 65.76 85.0133 68.08 84.16L76.72 80.96C77.4666 80.6933 78.0266 80.1333 78.2933 79.3867L81.4933 70.7467Z" fill="#CCCCCC"/>
</g>
</svg>
