<svg width="128" height="128" viewBox="0 0 128 128" fill="none" xmlns="http://www.w3.org/2000/svg">
<g opacity="0.6">
<path d="M70.3464 22.4379C73.7061 19.0781 79.4509 21.4577 79.4509 26.2091V101.791C79.4509 106.542 73.7061 108.922 70.3464 105.562L46.7384 81.9541C45.7384 80.9541 45.1765 79.5976 45.1765 78.1829V49.8171C45.1765 48.4024 45.7384 47.0459 46.7384 46.0459L70.3464 22.4379Z" fill="white"/>
<path d="M36.5491 49.0981C38.0219 49.0981 39.2157 50.292 39.2157 51.7648V76.2352C39.2157 77.708 38.0219 78.9019 36.5491 78.9019H30.2744C25.3364 78.9019 21.3333 74.8989 21.3333 69.9608V58.0392C21.3333 53.1011 25.3364 49.0981 30.2744 49.0981H36.5491Z" fill="white"/>
<path d="M91.3726 55.0589V71.4509" stroke="#CCCCCC" stroke-width="3" stroke-linecap="round"/>
<path d="M107.765 46.1176V78.9019" stroke="#CCCCCC" stroke-width="3" stroke-linecap="round"/>
</g>
</svg>
